PathFileType	4	(X/Y/Z)	Run_300 02
DataRate	CameraRate	NumFrames	NumMarkers	Units	OrigDataRate	OrigDataStartFrame	OrigNumFrames
100	100	4	45	mm	100	1	137
Frame#	Time	LASI			RASI			LPSI			RPSI			RTH1			RTH2			RTH3			LTH1			LTH2			LTH3			RTB1			RTB2			RTB3			RLMAL			RMMAL			LTB1			LTB2			LTB3			RCAL			RTOE			RMT5			LCAL			LTOE			LMT5			LACR			RACR			CLAV			C7			LPSH			RUA1			RUA2			RUA3			RLEL			RMEL			LUA1			LUA2			LUA3			LLEL			LMEL			RFAsuperior			RFAradius			RFAulna			LFAsuperior			LFAradius			LFAulna			
		X1	Y1	Z1	X2	Y2	Z2	X3	Y3	Z3	X4	Y4	Z4	X5	Y5	Z5	X6	Y6	Z6	X7	Y7	Z7	X8	Y8	Z8	X9	Y9	Z9	X10	Y10	Z10	X11	Y11	Z11	X12	Y12	Z12	X13	Y13	Z13	X14	Y14	Z14	X15	Y15	Z15	X16	Y16	Z16	X17	Y17	Z17	X18	Y18	Z18	X19	Y19	Z19	X20	Y20	Z20	X21	Y21	Z21	X22	Y22	Z22	X23	Y23	Z23	X24	Y24	Z24	X25	Y25	Z25	X26	Y26	Z26	X27	Y27	Z27	X28	Y28	Z28	X29	Y29	Z29	X30	Y30	Z30	X31	Y31	Z31	X32	Y32	Z32	X33	Y33	Z33	X34	Y34	Z34	X35	Y35	Z35	X36	Y36	Z36	X37	Y37	Z37	X38	Y38	Z38	X39	Y39	Z39	X40	Y40	Z40	X41	Y41	Z41	X42	Y42	Z42	X43	Y43	Z43	X44	Y44	Z44	X45	Y45	Z45	

1	0.46	961.5536970000001	1079.691077	-426.348443	959.363569	1088.862424	-195.049629	797.675491	1122.856091	-361.082646	795.995171	1119.524143	-271.24518	919.678216	826.790943	-143.110814	1014.312005	781.7059400000001	-163.059524	978.674905	669.294338	-178.389014	815.670599	869.497913	-471.521923	854.148551	745.672767	-452.918568	774.275289	665.090553	-441.017543	1087.07095	443.933063	-229.192409	1052.561705	379.05239	-192.629698	1096.788128	261.829277	-246.522112	1073.139305	138.140815	-241.981325	1098.015175	173.984384	-317.51503	671.315081	458.865056	-405.798419	537.618612	481.2515	-409.171167	498.01184	374.699434	-379.831801	1022.631265	119.032399	-313.415622	1243.794436	112.708114	-278.680974	1174.564329	69.35710899999999	-219.239557	348.375743	392.056481	-310.475993	371.225168	175.266498	-357.553261	330.015197	233.813933	-412.178815	945.700541	1594.042073	-447.271139	905.138781	1563.3384	-137.846993	989.171331	1511.937098	-263.858303	878.45868	1603.54479	-295.3081	867.793869	1557.329408	-475.837166	801.498044	1447.950759	-63.724498	719.049895	1428.735539	-106.94494	691.07857	1378.532641	-66.110879	671.011668	1311.533126	-41.506171	661.4234269999999	1305.88813	-129.377648	881.748036	1473.270151	-537.949756	815.05087	1398.537102	-535.818546	843.941669	1354.20236	-589.562165	852.264722	1273.969572	-610.026927	796.880747	1264.251094	-534.944567	706.706855	1240.731184	-51.969763	902.217636	1206.681395	-94.131556	870.241311	1148.344	-81.439437	912.86927	1238.121261	-542.00393	1018.947355	1327.597686	-435.231087	1040.839079	1264.16619	-442.700073	
2	0.47	960.971661	1073.987157	-426.117493	958.585675	1083.327772	-194.445614	796.605407	1115.646512	-360.973777	796.866214	1112.029609	-273.404157	919.999895	820.540517	-146.376838	1015.415931	778.479787	-165.108691	978.528756	663.943956	-180.944635	819.981663	860.646744	-470.964966	862.210591	738.124895	-454.090426	785.220518	655.416559	-441.818348	1081.167594	435.065601	-232.671156	1045.344122	371.744488	-194.76912	1083.840699	252.498342	-248.957673	1055.832467	129.937704	-242.944874	1079.815362	163.916799	-318.966279	682.618329	453.550096	-407.472736	550.194173	483.511639	-410.202661	505.091024	379.153003	-381.611617	1002.491578	112.12906	-313.649079	1224.217216	98.17692099999999	-285.278224	1154.694306	59.701604	-222.462499	355.852761	403.508978	-310.714187	370.308279	187.136034	-362.791714	330.866291	248.448308	-415.710249	945.566419	1588.205891	-446.124674	906.862302	1555.904221	-136.84522	989.577277	1505.17212	-263.589476	878.68904	1597.375045	-294.059869	867.249776	1551.969701	-474.543962	805.23259	1438.799065	-60.952624	721.919862	1419.033338	-101.86596	695.832406	1367.783939	-61.24008	676.63014	1300.728049	-36.816402	665.811055	1295.144887	-124.581346	879.711429	1468.968558	-537.419874	812.299685	1395.194117	-535.514822	840.3339120000001	1350.883123	-589.918976	847.08935	1270.796696	-611.1296129999999	792.309167	1261.079041	-535.800311	712.645861	1230.158238	-48.132433	907.818856	1197.345207	-93.187556	876.211603	1138.746594	-80.364436	907.434832	1231.104113	-545.0513979999999	1017.83746	1314.40417	-437.622651	1037.414853	1250.399102	-446.803638	
3	0.48	960.187508	1067.365895	-425.846551	957.934609	1076.74718	-193.522545	795.609101	1107.418352	-360.600368	797.75977	1103.34912	-274.980239	920.958755	813.3815070000001	-149.904554	1016.63934	773.5794090000001	-169.087449	978.053172	657.1132239999999	-183.499739	824.251648	851.178197	-470.703004	870.741487	730.0565779999999	-455.818932	796.896161	645.248205	-443.267223	1073.844555	424.569937	-236.65108	1036.687291	362.922711	-197.446331	1067.477535	241.896462	-252.095213	1033.990693	122.151528	-244.541143	1056.084226	153.495025	-321.466866	695.482545	447.576328	-409.778548	564.764464	484.65151	-411.730883	514.504109	382.65974	-383.66587	977.489556	105.14577	-314.863124	1200.208037	85.117501	-290.892711	1129.810088	53.765932	-224.432279	365.352901	413.729574	-311.620488	373.328868	197.871735	-367.072007	335.838623	261.265197	-419.05257	945.108126	1581.221516	-445.369268	908.4551269999999	1547.44663	-135.987037	989.9088	1497.453099	-263.449092	878.797477	1590.182768	-292.98757	866.364053	1545.473219	-473.30194	809.328352	1428.521271	-58.117287	725.151788	1407.924186	-96.526889	701.14493	1355.738994	-55.908322	683.00072	1288.584029	-31.540792	670.769304	1283.090747	-119.232647	877.177996	1463.760867	-536.9440499999999	809.185022	1390.91007	-535.056692	836.17175	1346.722444	-590.33425	841.352877	1266.827689	-612.360014	787.580782	1257.035584	-536.910133	719.390683	1218.249743	-43.79801	914.058281	1186.827264	-92.495113	882.941338	1127.992934	-79.11704400000001	901.385979	1223.144915	-548.539076	1016.241455	1299.822256	-440.788704	1033.225963	1234.783413	-450.971993	
4	0.49	959.278907	1059.807841	-425.696157	957.356149	1069.087914	-192.464362	794.745362	1098.43867	-360.046404	797.450194	1094.451315	-274.760837	921.582224	805.761341	-151.982669	1016.749685	765.971032	-174.498307	977.095134	648.6907639999999	-186.220507	828.553902	841.012927	-470.681125	879.560409	721.548173	-457.949477	809.167101	634.5979589999999	-445.16218	1065.381157	413.575077	-241.977402	1026.774971	353.380718	-201.867212	1048.402593	231.295011	-257.290541	1008.413038	116.378288	-248.096991	1028.385319	144.451656	-326.194289	709.7853239999999	441.065037	-412.693296	580.998974	484.655028	-413.830405	526.060178	385.180588	-385.991337	949.148241	99.467889	-317.83529	1173.21304	76.195494	-294.440318	1101.418119	52.302034	-225.368647	376.758179	422.687562	-313.255561	380.175148	207.194271	-370.544	344.698483	271.975729	-422.296152	944.340775	1573.056185	-445.087772	909.994609	1538.075749	-135.140175	990.277948	1488.787426	-263.415012	878.7715439999999	1581.823442	-292.06989	865.134857	1537.812546	-472.045538	813.759401	1417.250189	-55.221563	728.824346	1395.465703	-91.147684	706.973562	1342.57234	-50.285052	690.116888	1275.25842	-25.809497	675.985683	1269.928207	-113.272612	874.225763	1457.55011	-536.52584	805.813581	1385.587691	-534.47883	831.476311	1341.666354	-590.821495	835.052278	1261.977238	-613.7737080000001	782.61158	1252.061669	-538.232404	726.981801	1205.178813	-39.088373	920.975099	1175.33718	-91.945791	890.462751	1116.318624	-77.74881600000001	894.704449	1214.343658	-552.409485	1014.000326	1284.161947	-444.797598	1028.291801	1218.004711	-455.621376	
